HIERARCHY
ROOT Hips
{
	OFFSET 0.000000 83.214638 0.000000
	CHANNELS 6 Xposition Yposition Zposition Xrotation Yrotation Zrotation
	JOINT Pelvis
	{
		OFFSET 0.000000 0.000000 0.000000
		CHANNELS 3 Xrotation Yrotation Zrotation
		JOINT LeftUpLeg
		{
			OFFSET 8.479700 -4.795502 -0.379100
			CHANNELS 3 Xrotation Yrotation Zrotation
			JOINT LeftLeg
			{
				OFFSET 0.024144 -32.555107 0.112900
				CHANNELS 3 Xrotation Yrotation Zrotation
				JOINT LeftFoot
				{
					OFFSET -0.024144 -32.638630 -3.012600
					CHANNELS 3 Xrotation Yrotation Zrotation
					JOINT LeftToeBase
					{
						OFFSET 0.970200 -13.225400 11.864200
						CHANNELS 3 Xrotation Yrotation Zrotation
						End Site
						{
							OFFSET 0.000000 12.319262 0.000000
						}
					}
					JOINT LFootTongue
					{
						OFFSET 1.142400 -1.059800 6.665200
						CHANNELS 3 Xrotation Yrotation Zrotation
						End Site
						{
							OFFSET 0.000000 12.319262 0.000000
						}
					}
				}
				JOINT LeftPantLeg
				{
					OFFSET 0.918482 -16.533964 -2.284700
					CHANNELS 3 Xrotation Yrotation Zrotation
					End Site
					{
						OFFSET 0.350399 24.744368 0.000000
					}
				}
			}
		}
		JOINT RightUpLeg
		{
			OFFSET -8.479700 -4.795502 -0.379100
			CHANNELS 3 Xrotation Yrotation Zrotation
			JOINT RightLeg
			{
				OFFSET -0.023144 -32.555092 0.112900
				CHANNELS 3 Xrotation Yrotation Zrotation
				JOINT RightFoot
				{
					OFFSET 0.023144 -32.638641 -3.012700
					CHANNELS 3 Xrotation Yrotation Zrotation
					JOINT RightToeBase
					{
						OFFSET -0.970200 -13.225400 11.864200
						CHANNELS 3 Xrotation Yrotation Zrotation
						End Site
						{
							OFFSET 0.000000 12.319244 0.000000
						}
					}
					JOINT RFootTongue
					{
						OFFSET -1.142200 -1.059800 6.665200
						CHANNELS 3 Xrotation Yrotation Zrotation
						End Site
						{
							OFFSET 0.000000 12.319243 0.000000
						}
					}
				}
				JOINT RightPantLeg
				{
					OFFSET -0.919482 -16.533978 -2.284800
					CHANNELS 3 Xrotation Yrotation Zrotation
					End Site
					{
						OFFSET -0.350400 24.744419 0.000000
					}
				}
			}
		}
	}
	JOINT Spine
	{
		OFFSET 0.000000 7.722000 1.166200
		CHANNELS 3 Xrotation Yrotation Zrotation
		JOINT Spine1
		{
			OFFSET 0.000000 12.024101 0.248800
			CHANNELS 3 Xrotation Yrotation Zrotation
			JOINT Spine2
			{
				OFFSET 0.000000 11.502998 -0.491200
				CHANNELS 3 Xrotation Yrotation Zrotation
				JOINT Neck
				{
					OFFSET 0.000000 18.430702 -3.123100
					CHANNELS 3 Xrotation Yrotation Zrotation
					JOINT Head
					{
						OFFSET 0.000000 9.051102 1.034000
						CHANNELS 3 Xrotation Yrotation Zrotation
						JOINT HairB
						{
							OFFSET 0.208400 24.786102 24.822300
							CHANNELS 3 Xrotation Yrotation Zrotation
							End Site
							{
								OFFSET 0.000000 32.263779 0.000000
							}
						}
						JOINT HairA
						{
							OFFSET -7.081100 24.428299 23.196600
							CHANNELS 3 Xrotation Yrotation Zrotation
							End Site
							{
								OFFSET 0.000000 32.263779 0.000000
							}
						}
						JOINT Hat
						{
							OFFSET 16.728800 15.048294 -15.439601
							CHANNELS 3 Xrotation Yrotation Zrotation
							End Site
							{
								OFFSET 0.000000 32.263779 0.000000
							}
						}
					}
				}
				JOINT LeftShoulder
				{
					OFFSET 6.197800 13.665199 -4.064700
					CHANNELS 3 Xrotation Yrotation Zrotation
					JOINT LeftArm
					{
						OFFSET 7.778100 -0.187103 -1.709300
						CHANNELS 3 Xrotation Yrotation Zrotation
						JOINT LeftForeArm
						{
							OFFSET 22.049376 0.000000 0.000000
							CHANNELS 3 Xrotation Yrotation Zrotation
							JOINT LeftHand
							{
								OFFSET 23.009392 0.000000 0.000000
								CHANNELS 3 Xrotation Yrotation Zrotation
								JOINT LeftHandThumb1
								{
									OFFSET 3.507191 -2.063065 3.133727
									CHANNELS 3 Xrotation Yrotation Zrotation
									JOINT LeftHandThumb2
									{
										OFFSET 3.101337 -1.790558 1.790558
										CHANNELS 3 Xrotation Yrotation Zrotation
										JOINT LeftHandThumb3
										{
											OFFSET 3.058640 -1.765907 1.765906
											CHANNELS 3 Xrotation Yrotation Zrotation
											End Site
											{
												OFFSET -0.415260 3.926476 -0.049563
											}
										}
									}
								}
								JOINT LeftHandIndex1
								{
									OFFSET 11.334419 -0.901459 3.706815
									CHANNELS 3 Xrotation Yrotation Zrotation
									JOINT LeftHandIndex2
									{
										OFFSET 3.283112 0.000000 0.000000
										CHANNELS 3 Xrotation Yrotation Zrotation
										JOINT LeftHandIndex3
										{
											OFFSET 3.323853 0.000000 0.000000
											CHANNELS 3 Xrotation Yrotation Zrotation
											End Site
											{
												OFFSET -1.135597 3.097809 0.402452
											}
										}
									}
								}
								JOINT LeftHandMiddle1
								{
									OFFSET 11.335861 0.000000 0.000000
									CHANNELS 3 Xrotation Yrotation Zrotation
									JOINT LeftHandMiddle2
									{
										OFFSET 3.410492 0.000000 0.000000
										CHANNELS 3 Xrotation Yrotation Zrotation
										JOINT LeftHandMiddle3
										{
											OFFSET 3.312172 0.000000 0.000000
											CHANNELS 3 Xrotation Yrotation Zrotation
											End Site
											{
												OFFSET -1.150200 3.080154 0.400270
											}
										}
									}
								}
								JOINT LeftHandRing1
								{
									OFFSET 11.514786 -0.013176 -3.003090
									CHANNELS 3 Xrotation Yrotation Zrotation
									JOINT LeftHandRing2
									{
										OFFSET 3.053307 0.000000 0.000000
										CHANNELS 3 Xrotation Yrotation Zrotation
										JOINT LeftHandRing3
										{
											OFFSET 3.295807 0.000000 0.000000
											CHANNELS 3 Xrotation Yrotation Zrotation
											End Site
											{
												OFFSET -1.281006 3.013344 0.375733
											}
										}
									}
								}
								JOINT LeftHandPinky1
								{
									OFFSET 10.518692 -0.960396 -5.730441
									CHANNELS 3 Xrotation Yrotation Zrotation
									JOINT LeftHandPinky2
									{
										OFFSET 2.861649 0.000000 0.000000
										CHANNELS 3 Xrotation Yrotation Zrotation
										JOINT LeftHandPinky3
										{
											OFFSET 2.863380 0.000000 0.000000
											CHANNELS 3 Xrotation Yrotation Zrotation
											End Site
											{
												OFFSET -0.843597 2.711159 0.369971
											}
										}
									}
								}
							}
							JOINT LSleeve
							{
								OFFSET 6.676277 -0.344902 -1.011730
								CHANNELS 3 Xrotation Yrotation Zrotation
								End Site
								{
									OFFSET 0.000000 14.885353 0.000000
								}
							}
						}
					}
				}
				JOINT RightShoulder
				{
					OFFSET -6.197800 13.665199 -4.064700
					CHANNELS 3 Xrotation Yrotation Zrotation
					JOINT RightArm
					{
						OFFSET -7.778100 -0.187103 -1.709300
						CHANNELS 3 Xrotation Yrotation Zrotation
						JOINT RightForeArm
						{
							OFFSET -22.049376 0.000000 0.000000
							CHANNELS 3 Xrotation Yrotation Zrotation
							JOINT RightHand
							{
								OFFSET -23.009392 0.000000 0.000000
								CHANNELS 3 Xrotation Yrotation Zrotation
								JOINT RightHandThumb1
								{
									OFFSET -3.507191 -2.063065 3.133727
									CHANNELS 3 Xrotation Yrotation Zrotation
									JOINT RightHandThumb2
									{
										OFFSET -3.101337 -1.790558 1.790558
										CHANNELS 3 Xrotation Yrotation Zrotation
										JOINT RightHandThumb3
										{
											OFFSET -3.058640 -1.765907 1.765906
											CHANNELS 3 Xrotation Yrotation Zrotation
											End Site
											{
												OFFSET 0.415260 3.926476 -0.049563
											}
										}
									}
								}
								JOINT RightHandIndex1
								{
									OFFSET -11.334419 -0.901459 3.706815
									CHANNELS 3 Xrotation Yrotation Zrotation
									JOINT RightHandIndex2
									{
										OFFSET -3.283112 0.000000 0.000000
										CHANNELS 3 Xrotation Yrotation Zrotation
										JOINT RightHandIndex3
										{
											OFFSET -3.323853 0.000000 0.000000
											CHANNELS 3 Xrotation Yrotation Zrotation
											End Site
											{
												OFFSET 1.135597 3.097809 0.402452
											}
										}
									}
								}
								JOINT RightHandMiddle1
								{
									OFFSET -11.335861 0.000000 0.000000
									CHANNELS 3 Xrotation Yrotation Zrotation
									JOINT RightHandMiddle2
									{
										OFFSET -3.410492 0.000000 0.000000
										CHANNELS 3 Xrotation Yrotation Zrotation
										JOINT RightHandMiddle3
										{
											OFFSET -3.312172 0.000000 0.000000
											CHANNELS 3 Xrotation Yrotation Zrotation
											End Site
											{
												OFFSET 1.150200 3.080154 0.400270
											}
										}
									}
								}
								JOINT RightHandRing1
								{
									OFFSET -11.514786 -0.013176 -3.003090
									CHANNELS 3 Xrotation Yrotation Zrotation
									JOINT RightHandRing2
									{
										OFFSET -3.053307 0.000000 0.000000
										CHANNELS 3 Xrotation Yrotation Zrotation
										JOINT RightHandRing3
										{
											OFFSET -3.295807 0.000000 0.000000
											CHANNELS 3 Xrotation Yrotation Zrotation
											End Site
											{
												OFFSET 1.281006 3.013344 0.375733
											}
										}
									}
								}
								JOINT RightHandPinky1
								{
									OFFSET -10.518692 -0.960396 -5.730441
									CHANNELS 3 Xrotation Yrotation Zrotation
									JOINT RightHandPinky2
									{
										OFFSET -2.861649 0.000000 0.000000
										CHANNELS 3 Xrotation Yrotation Zrotation
										JOINT RightHandPinky3
										{
											OFFSET -2.863380 0.000000 0.000000
											CHANNELS 3 Xrotation Yrotation Zrotation
											End Site
											{
												OFFSET 0.843597 2.711159 0.369971
											}
										}
									}
								}
							}
							JOINT RSleeve
							{
								OFFSET -6.676277 -0.344902 -1.011730
								CHANNELS 3 Xrotation Yrotation Zrotation
								End Site
								{
									OFFSET 0.000000 14.885353 0.000000
								}
							}
						}
					}
				}
				JOINT Backpack
				{
					OFFSET 0.000000 -2.471497 36.677502
					CHANNELS 3 Xrotation Yrotation Zrotation
					End Site
					{
						OFFSET 0.000000 20.427315 0.000000
					}
				}
				JOINT Hood
				{
					OFFSET 0.000000 18.754097 -10.431000
					CHANNELS 3 Xrotation Yrotation Zrotation
					JOINT Hood1
					{
						OFFSET 0.000000 -5.011002 -7.685901
						CHANNELS 3 Xrotation Yrotation Zrotation
						End Site
						{
							OFFSET 0.000000 9.175140 0.000000
						}
					}
				}
				JOINT LHoodieString
				{
					OFFSET 5.250500 16.397697 3.089900
					CHANNELS 3 Xrotation Yrotation Zrotation
					JOINT LHoodieString1
					{
						OFFSET 0.257700 -6.364304 3.694600
						CHANNELS 3 Xrotation Yrotation Zrotation
						JOINT LHoodieString2
						{
							OFFSET 0.000000 -9.643799 2.679100
							CHANNELS 3 Xrotation Yrotation Zrotation
							End Site
							{
								OFFSET 0.000000 10.009018 0.000000
							}
						}
					}
				}
				JOINT RHoodieString
				{
					OFFSET -5.250500 16.397697 3.089900
					CHANNELS 3 Xrotation Yrotation Zrotation
					JOINT RHoodieString1
					{
						OFFSET -0.257700 -6.364304 3.694600
						CHANNELS 3 Xrotation Yrotation Zrotation
						JOINT RHoodieString2
						{
							OFFSET 0.000000 -9.643799 2.679100
							CHANNELS 3 Xrotation Yrotation Zrotation
							End Site
							{
								OFFSET 0.000000 10.009018 0.000000
							}
						}
					}
				}
			}
			JOINT LBackpack_Strap
			{
				OFFSET 15.223200 -7.719803 -6.610900
				CHANNELS 3 Xrotation Yrotation Zrotation
				End Site
				{
					OFFSET 0.000000 16.040596 0.000000
				}
			}
			JOINT RBackpack_Strap
			{
				OFFSET -15.223000 -7.719803 -6.610900
				CHANNELS 3 Xrotation Yrotation Zrotation
				End Site
				{
					OFFSET 0.000000 16.040596 0.000000
				}
			}
		}
	}
	JOINT BoyFacialAnim_Joint
	{
		OFFSET 1.000000 -82.208099 -1.550900
		CHANNELS 3 Xrotation Yrotation Zrotation
		End Site
		{
			OFFSET 0.000000 30.012791 0.000000
		}
	}
}
MOTION
Frames: 4
Frame Time: 0.016667
-0.051680 82.089729 0.282221 -4.120342 -1.670941 0.469320 0.000000 -0.000000 0.000000 -5.156184 8.156471 5.256033 14.596568 9.631117 1.406957 -4.347363 4.720255 -6.675342 0.000000 0.000003 0.000000 0.000000 0.000003 0.000000 -0.000000 0.000001 0.000000 -3.574755 -9.274953 -6.927429 16.185158 -9.518154 1.242879 -7.283493 -4.530817 4.985428 -0.000000 -0.000002 -0.000000 -0.000000 -0.000002 -0.000000 -0.000000 0.000003 0.000000 3.457840 1.701077 -2.325598 0.710881 0.526839 -0.263052 0.710199 0.523097 -0.267070 2.609733 -0.754816 0.156819 18.950505 -7.303243 0.624141 0.000001 0.000001 -0.000000 0.000001 0.000001 -0.000000 0.000001 0.000001 -0.000000 2.730607 -4.471829 -12.384153 -6.603775 -10.273118 -60.669169 -0.000003 -16.775187 -0.000016 21.485706 -10.082284 -12.336697 3.397838 -6.557755 3.595386 15.353598 21.247764 9.263495 0.000004 -0.000001 0.000004 -1.222342 -0.461772 -28.262358 0.291713 1.827320 -18.139048 -0.000003 0.000000 -0.000000 0.095134 4.196366 -33.991208 0.439523 2.228207 -22.314283 -0.000005 -0.000001 0.000002 5.761739 10.460337 -44.834530 0.435453 2.218269 -22.209383 -0.000000 -0.000000 -0.000002 11.866702 15.214641 -50.260370 0.411979 2.159927 -21.594866 -0.000000 -0.000001 -0.000002 0.000001 -0.000001 0.000001 1.996585 1.476375 14.937830 -2.025622 7.814281 63.299953 -0.000004 12.108130 0.000022 6.522651 12.381297 10.265034 -1.352779 9.111905 0.370101 17.058307 -29.720981 -6.078636 -0.000000 0.000001 -0.000001 -1.823901 1.946405 21.104026 0.341701 -1.752642 22.062530 -0.000000 -0.000001 0.000005 -0.809704 -1.799973 27.787977 0.365847 -1.811053 22.839205 0.000000 -0.000001 0.000001 2.161607 -6.996777 31.854599 0.441459 -1.980949 25.124419 -0.000000 -0.000003 0.000000 4.447239 -11.624183 37.638837 0.491085 -2.083417 26.523580 -0.000004 0.000001 0.000000 0.000002 0.000000 -0.000000 -0.000000 -0.000000 0.000000 -0.000000 -0.000000 0.000000 -0.000000 -0.000000 0.000000 -0.000000 -0.000000 0.000000 -0.000000 -0.000000 0.000000 -0.000000 -0.000000 0.000000 -0.000000 -0.000000 0.000000 -0.000000 -0.000000 0.000000 -0.000000 -0.000000 0.000000 0.000000 -0.000000 -0.000000 0.000000 -0.000000 -0.000000 0.000000 -0.000000 0.000000 
-0.150818 82.041962 0.071312 -4.300249 -1.294567 0.565805 -0.000000 0.000000 -0.000000 -5.489840 8.094253 5.298570 15.186615 9.626578 1.400767 -4.641067 4.361656 -6.714180 -0.000000 0.000003 0.000000 -0.000000 0.000003 0.000000 -0.000000 -0.000001 -0.000000 -3.822855 -9.137994 -6.846120 16.854503 -9.549034 1.078339 -7.523826 -5.015875 4.987823 -0.000000 -0.000000 0.000000 -0.000000 -0.000000 0.000000 -0.000000 -0.000001 0.000000 3.647041 1.890295 -2.275602 0.742683 0.579923 -0.240280 0.742192 0.575776 -0.244851 2.557503 -0.815733 0.156847 18.874454 -7.890824 0.747876 -0.000003 -0.000001 -0.000000 -0.000003 -0.000001 -0.000000 -0.000003 -0.000001 -0.000000 2.723279 -4.477275 -12.342101 -6.439324 -9.530074 -60.740012 -0.000001 -16.130151 0.000002 22.222867 -9.762237 -12.288126 3.397837 -6.557755 3.595392 15.386485 21.304721 9.230594 0.000003 0.000002 0.000002 -1.171235 -0.431667 -28.161495 0.297630 1.845223 -18.323127 -0.000000 -0.000001 -0.000002 0.117140 4.248510 -34.358655 0.437376 2.222924 -22.258692 -0.000006 0.000003 0.000004 5.785899 10.499910 -44.722685 0.442098 2.234457 -22.380486 0.000001 0.000003 0.000000 12.010688 15.220062 -50.621599 0.430320 2.205676 -22.076454 -0.000003 -0.000000 -0.000000 0.000001 0.000000 -0.000001 1.997862 1.678048 14.926608 -2.716033 8.083338 63.101973 0.000001 12.576848 -0.000019 6.347677 12.451758 10.578704 -1.352775 9.111907 0.370099 17.109400 -29.778208 -6.033852 -0.000001 0.000001 -0.000002 -1.914895 1.926757 21.734837 0.354114 -1.782957 22.465035 0.000001 -0.000001 0.000005 -0.822217 -1.866066 28.591693 0.378298 -1.840324 23.229941 0.000000 -0.000001 -0.000000 2.205350 -6.995210 32.676503 0.453285 -2.005935 25.464250 -0.000003 -0.000002 0.000000 4.563073 -11.613667 38.479404 0.502028 -2.105176 26.822957 -0.000000 0.000001 -0.000003 -0.000000 -0.000001 -0.000000 -0.000000 0.000000 -0.000000 -0.000000 0.000000 -0.000000 -0.000000 0.000000 -0.000000 -0.000000 0.000000 -0.000000 -0.000000 0.000000 0.000000 -0.000000 0.000000 0.000000 -0.000000 0.000000 -0.000000 -0.000000 0.000000 0.000000 -0.000000 0.000000 0.000000 0.000000 0.000000 0.000000 0.000000 0.000000 0.000000 -0.000000 0.000000 -0.000000 
-0.240606 82.002983 -0.131029 -4.505276 -0.958222 0.650831 -0.000000 -0.000000 0.000000 -5.733420 8.030624 5.326768 15.674652 9.623045 1.406018 -4.888243 4.035964 -6.744371 0.000000 0.000001 0.000000 0.000000 0.000001 0.000000 -0.000001 0.000000 -0.000000 -3.985020 -9.050056 -6.784637 17.398206 -9.574505 0.957215 -7.702641 -5.420154 4.974455 -0.000000 0.000002 0.000000 -0.000000 0.000002 0.000000 -0.000001 0.000000 -0.000000 3.851734 2.093423 -2.216262 0.779252 0.636650 -0.214313 0.779022 0.632010 -0.219523 2.504435 -0.875463 0.156874 18.776654 -8.477598 0.864275 -0.000000 0.000001 0.000001 -0.000000 0.000001 0.000001 -0.000000 0.000001 0.000001 2.725929 -4.533559 -12.333781 -6.245856 -8.768367 -60.756582 -0.000004 -15.406545 -0.000003 22.884385 -9.466666 -12.270917 3.397836 -6.557753 3.595386 15.418066 21.359216 9.199027 0.000004 -0.000000 -0.000000 -1.119836 -0.397985 -28.078595 0.305172 1.867858 -18.556302 -0.000003 0.000001 0.000000 0.143356 4.310980 -34.824259 0.439431 2.227994 -22.312077 -0.000004 0.000002 0.000000 5.850580 10.548832 -44.833567 0.441408 2.232815 -22.363021 -0.000001 0.000005 0.000000 12.071322 15.267102 -50.593537 0.454692 2.264821 -22.701326 -0.000002 0.000001 -0.000000 0.000000 0.000001 -0.000001 1.997979 1.881702 14.910778 -3.306483 8.365062 62.900735 -0.000000 13.174782 -0.000011 6.023913 12.660647 11.096678 -1.352779 9.111904 0.370101 17.154664 -29.828771 -5.994227 -0.000001 0.000002 -0.000003 -1.992504 1.916369 22.233596 0.366411 -1.812376 22.856897 0.000003 -0.000000 0.000004 -0.836415 -1.925792 29.374588 0.391623 -1.871064 23.641723 0.000001 0.000001 0.000000 2.254778 -7.003508 33.488684 0.465545 -2.031487 25.812501 -0.000001 -0.000002 0.000000 4.679352 -11.600635 39.336630 0.513852 -2.128371 27.142854 -0.000001 -0.000001 0.000002 0.000000 0.000001 -0.000001 0.000000 -0.000000 0.000000 0.000000 -0.000000 0.000000 0.000000 -0.000000 0.000000 0.000000 -0.000000 0.000000 0.000000 -0.000000 0.000000 0.000000 -0.000000 0.000000 0.000000 -0.000000 0.000000 0.000000 -0.000000 0.000000 0.000000 -0.000000 0.000000 -0.000000 -0.000000 0.000000 -0.000000 -0.000000 0.000000 -0.000000 -0.000000 0.000000 
-0.323200 81.971344 -0.323607 -4.717196 -0.629626 0.721898 -0.000000 0.000000 -0.000000 -5.925784 7.968161 5.353306 16.089431 9.620263 1.421009 -5.102559 3.707823 -6.768282 -0.000000 0.000000 0.000000 -0.000000 0.000000 -0.000000 0.000000 0.000001 -0.000000 -4.080570 -9.014856 -6.742081 17.835461 -9.591392 0.889914 -7.835529 -5.769721 4.935771 -0.000000 0.000000 0.000000 -0.000000 0.000000 0.000000 -0.000000 0.000004 -0.000000 4.047074 2.282755 -2.140305 0.816892 0.688821 -0.187654 0.816969 0.683691 -0.193516 2.454511 -0.931647 0.156904 18.669871 -9.033299 0.984025 0.000003 -0.000000 -0.000000 0.000003 -0.000000 -0.000000 0.000003 -0.000000 -0.000000 2.731424 -4.597782 -12.332032 -6.033515 -7.976577 -60.769218 0.000011 -14.615929 0.000012 23.498369 -9.138145 -12.293593 3.397832 -6.557757 3.595388 15.448431 21.411496 9.168668 0.000001 -0.000000 0.000002 -1.062549 -0.357050 -28.005058 0.313267 1.891807 -18.803193 -0.000001 0.000001 -0.000002 0.172052 4.377153 -35.317481 0.443997 2.239093 -22.429271 -0.000004 0.000001 0.000002 5.951471 10.614490 -45.075383 0.435969 2.219552 -22.222844 -0.000002 0.000003 0.000000 12.075868 15.341314 -50.311887 0.484497 2.334713 -23.444124 0.000000 -0.000003 0.000001 0.000001 0.000000 -0.000001 2.000277 2.088531 14.902337 -3.800157 8.674481 62.681131 -0.000001 13.889303 0.000005 5.628969 13.001806 11.760487 -1.352782 9.111907 0.370102 17.142404 -29.817218 -6.000203 -0.000004 0.000000 -0.000002 -2.046309 1.896124 22.639898 0.378257 -1.840224 23.228775 0.000002 0.000002 0.000006 -0.864180 -1.957217 30.119461 0.405474 -1.902316 24.061739 -0.000003 0.000003 0.000002 2.313618 -7.025320 34.301869 0.478625 -2.058278 26.178715 -0.000003 -0.000002 0.000002 4.785216 -11.581156 40.184598 0.526308 -2.152489 27.476509 0.000000 0.000003 -0.000003 0.000000 -0.000001 0.000000 0.000000 -0.000000 0.000000 0.000000 -0.000000 0.000000 0.000000 -0.000000 0.000000 0.000000 -0.000000 0.000000 0.000000 -0.000000 0.000000 0.000000 0.000000 0.000000 0.000000 -0.000000 0.000000 0.000000 -0.000000 0.000000 0.000000 0.000000 0.000000 0.000000 0.000000 -0.000000 0.000000 0.000000 -0.000000 -0.000000 0.000000 -0.000000 
